<?xml version="1.0" encoding="UTF-8"?>
<svg version="1.1" xmlns="http://www.w3.org/2000/svg" width="380" height="491">
<path d="M0 0 C2.02874852 0.02426849 4.05757361 0.04276321 6.08642578 0.05574036 C11.4084371 0.10521311 16.72578306 0.23274175 22.04595947 0.37689209 C27.48182044 0.51025193 32.91844097 0.56932968 38.35546875 0.63476562 C49.00985464 0.77389284 59.66078839 0.99554407 70.3125 1.26953125 C69.49525345 6.0059042 67.66301052 9.77126965 65.375 13.95703125 C64.97676025 14.69671143 64.57852051 15.4363916 64.16821289 16.19848633 C62.89192488 18.56050115 61.6042653 20.9159484 60.3125 23.26953125 C59.89194336 24.03652344 59.47138672 24.80351563 59.03808594 25.59375 C55.13320926 32.69791173 51.18627189 39.77587383 47.12475586 46.79174805 C44.30107054 51.67165549 41.64025312 56.56776045 39.1875 61.64453125 C35.90639355 68.34251407 32.16892545 74.72530491 28.375 81.14453125 C24.1281712 88.33652754 20.05242023 95.51572807 16.42993164 103.0402832 C12.76094985 110.57185806 8.5782026 117.81918369 4.46069336 125.11181641 C1.19449361 130.89987337 -2.03129121 136.69991387 -5.125 142.58203125 C-7.37854947 146.8594691 -9.71234439 151.05408559 -12.1875 155.20703125 C-14.92155511 159.81764237 -17.33743749 164.5199181 -19.6875 169.33203125 C-21.96531389 173.99184065 -24.31972065 178.43527383 -27.1875 182.76953125 C-29.84421694 186.80204803 -32.08362491 190.92997738 -34.1875 195.26953125 C-37.78564992 202.66638075 -41.73088014 209.84377904 -45.75 217.01953125 C-51.79982714 227.82094264 -57.70603128 238.68916035 -63.50024414 249.62988281 C-64.07766357 250.71624023 -64.65508301 251.80259766 -65.25 252.921875 C-65.74628906 253.86023193 -66.24257812 254.79858887 -66.75390625 255.76538086 C-67.05417221 256.27179108 -67.35443817 256.77820129 -67.6638031 257.29995728 C-68.81308509 259.39296687 -68.81308509 259.39296687 -69.72889709 262.29550171 C-71.31379586 266.10218282 -72.65425182 268.44962242 -75.6875 271.26953125 C-82.24879861 273.50283542 -89.68020433 272.65931456 -96.49609375 272.44140625 C-98.5487013 272.41900965 -100.60137323 272.40193521 -102.65406799 272.38995361 C-108.04314966 272.34424875 -113.42831669 272.22648964 -118.81585693 272.09350586 C-124.31875646 271.97049068 -129.82229215 271.91588904 -135.32617188 271.85546875 C-146.11499639 271.72697557 -156.90092206 271.52232264 -167.6875 271.26953125 C-166.26470068 266.82328337 -164.5763449 263.10096909 -162.1875 259.08203125 C-158.82913196 253.35364842 -155.68859083 247.53546876 -152.625 241.64453125 C-149.31979305 235.30327713 -145.90092577 229.08138863 -142.25390625 222.9296875 C-138.75344339 216.98501117 -135.53073672 210.89034719 -132.3359375 204.77734375 C-131.47410839 203.12882779 -130.61212557 201.48039219 -129.75 199.83203125 C-129.1000708 198.58921387 -129.1000708 198.58921387 -128.43701172 197.32128906 C-125.55502372 191.83954164 -122.50941303 186.48689253 -119.3359375 181.16796875 C-117.46047194 177.87034921 -115.78447946 174.49121869 -114.125 171.08203125 C-112.20008858 167.15948953 -110.26669973 163.4655241 -107.75 159.89453125 C-104.56361114 155.3389249 -102.22029552 150.4674914 -99.78930664 145.48486328 C-97.57559437 140.97360584 -95.21823104 136.61147176 -92.6875 132.26953125 C-89.77686039 127.27007969 -87.11081823 122.21214728 -84.5625 117.01953125 C-82.06211773 111.9339675 -79.43647837 107.03928675 -76.44921875 102.21875 C-71.96180774 94.70656527 -67.87643029 86.95091504 -63.6875 79.26953125 C-63.1409375 78.26792969 -62.594375 77.26632813 -62.03125 76.234375 C-61.13292925 74.58658315 -60.23579992 72.93814124 -59.33984375 71.2890625 C-57.94483906 68.73979861 -56.53922178 66.19705252 -55.12890625 63.65625 C-48.77433716 52.19123741 -48.77433716 52.19123741 -42.8125 40.51953125 C-40.72475051 36.26468787 -38.51276289 32.26672711 -35.921875 28.3046875 C-34.40428184 25.80257979 -33.15197342 23.21493075 -31.875 20.58203125 C-31.1310498 19.13784065 -31.1310498 19.13784065 -30.37207031 17.66447449 C-28.64564941 14.31045228 -28.64564941 14.31045228 -27.35351562 10.85395813 C-21.53195799 -1.73363481 -12.63885512 -0.44384174 0 0 Z " fill="#010065" transform="translate(209.6875,68.73046875)"/>
<path d="M0 0 C30.03 0 60.06 0 91 0 C91 75.57 91 151.14 91 229 C60.64 229 30.28 229 -1 229 C-1.02202671 199.97116937 -1.04049806 170.94234459 -1.05106533 141.9135077 C-1.0523161 138.48994588 -1.05361042 135.06638407 -1.05493164 131.64282227 C-1.05519395 130.96122441 -1.05545626 130.27962655 -1.05572652 129.57737421 C-1.06008326 118.52675331 -1.06797082 107.47613759 -1.0771528 96.42551977 C-1.08648924 85.09488069 -1.09198069 73.76424545 -1.09408849 62.43360227 C-1.09539603 56.06586316 -1.09848458 49.69813582 -1.10573006 43.33040047 C-1.11248631 37.34447483 -1.11461777 31.35856588 -1.11310768 25.3726368 C-1.11338419 23.16869008 -1.11539164 20.96474284 -1.11920547 18.76079941 C-1.12413656 15.76585076 -1.12300046 12.77096617 -1.12025452 9.77601624 C-1.12316736 8.89179287 -1.1260802 8.0075695 -1.12908131 7.09655148 C-1.11412121 1.11412121 -1.11412121 1.11412121 0 0 Z " fill="#010065" transform="translate(231,201)"/>
<path d="M0 0 C17.49 0 34.98 0 53 0 C53 11.22 53 22.44 53 34 C30.23 34 7.46 34 -16 34 C-15.05809398 29.29046988 -13.54057923 25.7004065 -11.375 21.5 C-10.89740234 20.55253906 -10.89740234 20.55253906 -10.41015625 19.5859375 C-7.06070232 12.99048768 -3.50848231 6.51575286 0 0 Z " fill="#010063" transform="translate(163,306)"/>
<path d="M0 0 C2.43714391 3.65571586 2.23228769 6.28547865 2.13525391 10.50073242 C2.12579239 11.26194901 2.11633087 12.02316559 2.10658264 12.80744934 C2.07290279 15.32370006 2.02478855 17.83945824 1.9765625 20.35546875 C1.95039557 22.09994723 1.92512855 23.84443942 1.90072632 25.58894348 C1.83407335 30.18074899 1.75518099 34.77226621 1.67376709 39.36383057 C1.57862238 44.87281664 1.49862958 50.38204089 1.41610718 55.89122772 C1.28903315 64.26105894 1.14267536 72.63035465 1 81 C-13.19 81 -27.38 81 -42 81 C-41.17250421 76.03502524 -40.74368647 74.0286901 -38.375 69.98046875 C-37.83762207 69.04904053 -37.30024414 68.1176123 -36.74658203 67.15795898 C-35.88202393 65.68758179 -35.88202393 65.68758179 -35 64.1875 C-33.80815396 62.12079521 -32.61806067 60.05307867 -31.4296875 57.984375 C-30.55135254 56.45973633 -30.55135254 56.45973633 -29.65527344 54.90429688 C-27.40376683 50.95386581 -25.24299739 46.96080097 -23.125 42.9375 C-22.76688232 42.25768066 -22.40876465 41.57786133 -22.03979492 40.87744141 C-19.73420956 36.46968895 -17.51241348 32.02370577 -15.3125 27.5625 C-12.89686973 22.68103006 -10.28172335 18.0241399 -7.41796875 13.39453125 C-5.40873066 10.00152038 -3.69198384 6.48401825 -1.98046875 2.93359375 C-1 1 -1 1 0 0 Z " fill="#020164" transform="translate(215,211)"/>
<path d="M0 0 C0.99 0.495 0.99 0.495 2 1 C1.02616882 3.47026062 1.02616882 3.47026062 -1 6 C-4.00050785 6.45661865 -6.42374274 6.57661284 -9.41870117 6.47583008 C-10.27745346 6.46680664 -11.13620575 6.4577832 -12.02098083 6.44848633 C-14.86256329 6.41268524 -17.70208424 6.3412418 -20.54296875 6.26953125 C-22.51162865 6.23777221 -24.48032554 6.20823422 -26.4490509 6.18083191 C-31.63309967 6.10269235 -36.81609619 5.99433313 -41.99945068 5.87976074 C-47.28774102 5.76818959 -52.57646924 5.6850825 -57.86523438 5.59960938 C-68.24411849 5.42766183 -78.6221136 5.22379927 -89 5 C-89 4.67 -89 4.34 -89 4 C-87.37174789 3.99120064 -87.37174789 3.99120064 -85.71060181 3.98222351 C-75.49807329 3.9250966 -65.28575976 3.85238809 -55.07345009 3.76428509 C-49.82274524 3.7194911 -44.57211962 3.68025513 -39.32128906 3.65356445 C-34.25722557 3.62762125 -29.19346548 3.58728332 -24.12958908 3.53681374 C-22.19426614 3.52008399 -20.25889065 3.50860791 -18.3235054 3.50238609 C-15.61980365 3.49281108 -12.91688888 3.46483242 -10.21337891 3.43237305 C-9.00389336 3.43452568 -9.00389336 3.43452568 -7.76997375 3.4367218 C-5.31799144 3.43009147 -5.31799144 3.43009147 -2 3 C-1.34 2.01 -0.68 1.02 0 0 Z " fill="#040457" transform="translate(135,334)"/>
<path d="M0 0 C0.71484375 1.609375 0.71484375 1.609375 1 4 C-0.43359375 7.015625 -0.43359375 7.015625 -2.4375 10.25 C-3.09621094 11.32765625 -3.75492188 12.4053125 -4.43359375 13.515625 C-4.95050781 14.33546875 -5.46742188 15.1553125 -6 16 C-6.66 15.67 -7.32 15.34 -8 15 C-2.81321185 4.44191344 -2.81321185 4.44191344 0 0 Z " fill="#060552" transform="translate(192,229)"/>
<path d="M0 0 C0.66 0.33 1.32 0.66 2 1 C1.01 2.98 0.02 4.96 -1 7 C0.65 7 2.3 7 4 7 C4.33 7.66 4.66 8.32 5 9 C2.36 9 -0.28 9 -3 9 C-2.44271087 5.65626525 -1.64826111 2.96687001 0 0 Z " fill="#070757" transform="translate(150,331)"/>
<path d="M0 0 C0.66 0 1.32 0 2 0 C0.55049545 3.7910119 -1.15172566 7.3874638 -3 11 C-3.66 11 -4.32 11 -5 11 C-3.78065514 6.96678237 -2.44045073 3.45730521 0 0 Z " fill="#101068" transform="translate(264,97)"/>
<path d="M0 0 C2.80722691 4.21084037 1.94537893 6.11554218 1 11 C0.01 11.495 0.01 11.495 -1 12 C-1 3.625 -1 3.625 0 0 Z " fill="#141362" transform="translate(215,211)"/>
<path d="M0 0 C0.6875 1.625 0.6875 1.625 1 4 C-0.4375 7.25 -0.4375 7.25 -2 10 C-2.66 10 -3.32 10 -4 10 C-2.8905928 6.51329166 -1.73662334 3.22515763 0 0 Z " fill="#010155" transform="translate(87,255)"/>
<path d="M0 0 C0.6875 1.6875 0.6875 1.6875 1 4 C-0.3125 6.75 -0.3125 6.75 -2 9 C-2.66 9 -3.32 9 -4 9 C-2.94124926 5.59687262 -1.99097846 2.98646769 0 0 Z " fill="#141368" transform="translate(163,282)"/>
</svg>
