<?xml version="1.0" encoding="UTF-8"?>
<svg version="1.1" xmlns="http://www.w3.org/2000/svg" width="1080" height="551">
<path d="M0 0 C2.02874852 0.02426849 4.05757361 0.04276321 6.08642578 0.05574036 C11.4084371 0.10521311 16.72578306 0.23274175 22.04595947 0.37689209 C27.48182044 0.51025193 32.91844097 0.56932968 38.35546875 0.63476562 C49.00985464 0.77389284 59.66078839 0.99554407 70.3125 1.26953125 C69.49525345 6.0059042 67.66301052 9.77126965 65.375 13.95703125 C64.97676025 14.69671143 64.57852051 15.4363916 64.16821289 16.19848633 C62.89192488 18.56050115 61.6042653 20.9159484 60.3125 23.26953125 C59.89194336 24.03652344 59.47138672 24.80351563 59.03808594 25.59375 C55.13320926 32.69791173 51.18627189 39.77587383 47.12475586 46.79174805 C44.30107054 51.67165549 41.64025312 56.56776045 39.1875 61.64453125 C35.90639355 68.34251407 32.16892545 74.72530491 28.375 81.14453125 C24.1281712 88.33652754 20.05242023 95.51572807 16.42993164 103.0402832 C12.76094985 110.57185806 8.5782026 117.81918369 4.46069336 125.11181641 C1.19449361 130.89987337 -2.03129121 136.69991387 -5.125 142.58203125 C-7.37854947 146.8594691 -9.71234439 151.05408559 -12.1875 155.20703125 C-14.92155511 159.81764237 -17.33743749 164.5199181 -19.6875 169.33203125 C-21.96531389 173.99184065 -24.31972065 178.43527383 -27.1875 182.76953125 C-29.84421694 186.80204803 -32.08362491 190.92997738 -34.1875 195.26953125 C-37.78564992 202.66638075 -41.73088014 209.84377904 -45.75 217.01953125 C-51.79982714 227.82094264 -57.70603128 238.68916035 -63.50024414 249.62988281 C-64.07766357 250.71624023 -64.65508301 251.80259766 -65.25 252.921875 C-65.74628906 253.86023193 -66.24257812 254.79858887 -66.75390625 255.76538086 C-67.05417221 256.27179108 -67.35443817 256.77820129 -67.6638031 257.29995728 C-68.81308509 259.39296687 -68.81308509 259.39296687 -69.72889709 262.29550171 C-71.31379586 266.10218282 -72.65425182 268.44962242 -75.6875 271.26953125 C-82.24879861 273.50283542 -89.68020433 272.65931456 -96.49609375 272.44140625 C-98.5487013 272.41900965 -100.60137323 272.40193521 -102.65406799 272.38995361 C-108.04314966 272.34424875 -113.42831669 272.22648964 -118.81585693 272.09350586 C-124.31875646 271.97049068 -129.82229215 271.91588904 -135.32617188 271.85546875 C-146.11499639 271.72697557 -156.90092206 271.52232264 -167.6875 271.26953125 C-166.26470068 266.82328337 -164.5763449 263.10096909 -162.1875 259.08203125 C-158.82913196 253.35364842 -155.68859083 247.53546876 -152.625 241.64453125 C-149.31979305 235.30327713 -145.90092577 229.08138863 -142.25390625 222.9296875 C-138.75344339 216.98501117 -135.53073672 210.89034719 -132.3359375 204.77734375 C-131.47410839 203.12882779 -130.61212557 201.48039219 -129.75 199.83203125 C-129.1000708 198.58921387 -129.1000708 198.58921387 -128.43701172 197.32128906 C-125.55502372 191.83954164 -122.50941303 186.48689253 -119.3359375 181.16796875 C-117.46047194 177.87034921 -115.78447946 174.49121869 -114.125 171.08203125 C-112.20008858 167.15948953 -110.26669973 163.4655241 -107.75 159.89453125 C-104.56361114 155.3389249 -102.22029552 150.4674914 -99.78930664 145.48486328 C-97.57559437 140.97360584 -95.21823104 136.61147176 -92.6875 132.26953125 C-89.77686039 127.27007969 -87.11081823 122.21214728 -84.5625 117.01953125 C-82.06211773 111.9339675 -79.43647837 107.03928675 -76.44921875 102.21875 C-71.96180774 94.70656527 -67.87643029 86.95091504 -63.6875 79.26953125 C-63.1409375 78.26792969 -62.594375 77.26632813 -62.03125 76.234375 C-61.13292925 74.58658315 -60.23579992 72.93814124 -59.33984375 71.2890625 C-57.94483906 68.73979861 -56.53922178 66.19705252 -55.12890625 63.65625 C-48.77433716 52.19123741 -48.77433716 52.19123741 -42.8125 40.51953125 C-40.72475051 36.26468787 -38.51276289 32.26672711 -35.921875 28.3046875 C-34.40428184 25.80257979 -33.15197342 23.21493075 -31.875 20.58203125 C-31.1310498 19.13784065 -31.1310498 19.13784065 -30.37207031 17.66447449 C-28.64564941 14.31045228 -28.64564941 14.31045228 -27.35351562 10.85395813 C-21.53195799 -1.73363481 -12.63885512 -0.44384174 0 0 Z " fill="#010065" transform="translate(253.6875,94.73046875)"/>
<path d="M0 0 C30.03 0 60.06 0 91 0 C91 75.57 91 151.14 91 229 C60.64 229 30.28 229 -1 229 C-1.02202671 199.97116937 -1.04049806 170.94234459 -1.05106533 141.9135077 C-1.0523161 138.48994588 -1.05361042 135.06638407 -1.05493164 131.64282227 C-1.05519395 130.96122441 -1.05545626 130.27962655 -1.05572652 129.57737421 C-1.06008326 118.52675331 -1.06797082 107.47613759 -1.0771528 96.42551977 C-1.08648924 85.09488069 -1.09198069 73.76424545 -1.09408849 62.43360227 C-1.09539603 56.06586316 -1.09848458 49.69813582 -1.10573006 43.33040047 C-1.11248631 37.34447483 -1.11461777 31.35856588 -1.11310768 25.3726368 C-1.11338419 23.16869008 -1.11539164 20.96474284 -1.11920547 18.76079941 C-1.12413656 15.76585076 -1.12300046 12.77096617 -1.12025452 9.77601624 C-1.12316736 8.89179287 -1.1260802 8.0075695 -1.12908131 7.09655148 C-1.11412121 1.11412121 -1.11412121 1.11412121 0 0 Z " fill="#010065" transform="translate(275,227)"/>
<path d="M0 0 C14.6025 -0.061875 29.205 -0.12375 44.25 -0.1875 C48.83938477 -0.21481201 53.42876953 -0.24212402 58.15722656 -0.27026367 C63.81591797 -0.28381348 63.81591797 -0.28381348 66.4755249 -0.28633118 C68.31001985 -0.29090008 70.1445065 -0.30137167 71.97894287 -0.31672668 C100.51898433 -0.54341595 100.51898433 -0.54341595 110.5546875 8.3828125 C119.73844311 18.6586904 118.63790437 36.09327472 118 49 C117.42639776 57.65954354 116.00441709 64.48053134 110 71 C107.74175677 72.92335345 105.53247793 74.42986368 103 76 C103.62648438 76.31453125 104.25296875 76.6290625 104.8984375 76.953125 C105.71570313 77.38109375 106.53296875 77.8090625 107.375 78.25 C108.18710937 78.66765625 108.99921875 79.0853125 109.8359375 79.515625 C112.20801205 81.14267975 112.97094804 82.35386639 114 85 C114.66 85 115.32 85 116 85 C119.22350445 92.02985657 121.84033546 98.23346082 122 106 C122.03867187 107.28003906 122.07734375 108.56007813 122.1171875 109.87890625 C122.41221999 123.99396593 122.00123335 138.56261622 112.5625 149.9375 C111.716875 150.618125 110.87125 151.29875 110 152 C109.154375 152.70125 108.30875 153.4025 107.4375 154.125 C102.53516726 156.79899968 97.43492181 157.85157103 92 159 C91.29156448 159.17530746 90.58312897 159.35061493 89.85322571 159.53123474 C86.04708358 160.15655758 82.29096733 160.1308823 78.44604492 160.11352539 C77.58308209 160.11364593 76.72011927 160.11376646 75.83100605 160.11389065 C73.04746707 160.11314638 70.26399569 160.1055403 67.48046875 160.09765625 C65.75801628 160.09618533 64.03556336 160.09516554 62.31311035 160.09460449 C55.93790007 160.08936905 49.56269937 160.07540781 43.1875 160.0625 C28.935625 160.041875 14.68375 160.02125 0 160 C0 107.2 0 54.4 0 0 Z M19 18 C19 34.5 19 51 19 68 C30.40624015 68.05820715 30.40624015 68.05820715 41.8125 68.09765625 C46.46716899 68.10959482 51.12175902 68.12369263 55.77636719 68.15087891 C59.53055561 68.17266794 63.2846593 68.18458137 67.0389061 68.18975449 C68.46857918 68.19343939 69.89824782 68.20063505 71.32788467 68.21146011 C73.33589373 68.22605481 75.3439887 68.2268176 77.35205078 68.22705078 C79.0641423 68.23371262 79.0641423 68.23371262 80.81082153 68.24050903 C85.64726117 67.87577328 88.99004355 66.82632801 92.75 63.75 C95.14480218 60.82301956 96.07114978 58.6379967 97 55 C97.1762793 54.36215576 97.35255859 53.72431152 97.53417969 53.06713867 C99.59449021 43.92424076 98.98926067 32.42177252 95 24 C92.01102102 20.11907174 87.72493879 19.23850662 83.03022766 18.58937073 C75.31533036 18.06897956 67.64953709 17.86652535 59.91796875 17.90234375 C58.14768059 17.90446617 58.14768059 17.90446617 56.34162903 17.90663147 C52.62355869 17.91216677 48.90555171 17.9247066 45.1875 17.9375 C42.64518317 17.94252338 40.10286538 17.94708481 37.56054688 17.95117188 C31.3736547 17.9612581 25.1868971 17.98084552 19 18 Z M19 86 C19 104.48 19 122.96 19 142 C26.73925636 142.04211204 34.47808996 142.08216287 42.21736145 142.10350037 C45.82252989 142.11399668 49.42760199 142.12798799 53.03271484 142.15087891 C56.51460962 142.17284536 59.99641186 142.18461793 63.47837067 142.18975449 C65.43228715 142.19516818 67.38616717 142.21074155 69.34002686 142.22659302 C84.70442918 142.52413801 84.70442918 142.52413801 98 136 C103.87748889 126.22548044 103.14509336 111.28447745 100.8125 100.5625 C99.39097513 95.53402186 97.92683449 92.47022583 94 89 C85.11832794 84.55916397 72.89920214 85.86119963 63.23828125 85.90234375 C61.96647507 85.9037587 60.69466888 85.90517365 59.38432312 85.90663147 C56.04221611 85.91124496 52.70018063 85.92019148 49.35809326 85.93133545 C45.93209453 85.94165996 42.50608812 85.94620771 39.08007812 85.95117188 C32.38667921 85.96128581 25.69340337 85.98086992 19 86 Z " fill="#030264" transform="translate(432,183)"/>
<path d="M0 0 C1.1053862 -0.00570007 2.2107724 -0.01140015 3.34965515 -0.01727295 C5.69053192 -0.02670545 8.03142186 -0.03324997 10.37231445 -0.03710938 C13.89884735 -0.04673748 17.4247775 -0.07774593 20.95117188 -0.109375 C58.0745041 -0.28447886 58.0745041 -0.28447886 69.6875 10.0234375 C77.88874453 18.6831367 78.82636843 28.63526646 78.69921875 40.140625 C78.67859375 42.80125 78.65796875 45.461875 78.63671875 48.203125 C72.03671875 48.203125 65.43671875 48.203125 58.63671875 48.203125 C58.32421875 39.578125 58.32421875 39.578125 58.2487793 36.89599609 C57.97681508 31.01601068 56.94956155 26.5159678 52.63671875 22.203125 C50.74693848 21.55586302 50.74693848 21.55586302 48.57421875 21.140625 C47.86136719 20.98464844 47.14851562 20.82867187 46.4140625 20.66796875 C37.55436982 19.18512286 28.78684688 18.9856285 19.828125 18.96289062 C17.53738399 18.9532332 15.24756103 18.92215057 12.95703125 18.890625 C-3.67333077 18.37463753 -3.67333077 18.37463753 -18.21020508 24.70141602 C-24.76151196 32.31353095 -24.03549157 42.57730094 -23.55371094 52.10791016 C-23.16742169 56.35808235 -22.01711599 60.28511175 -20.36328125 64.203125 C-19.70328125 64.203125 -19.04328125 64.203125 -18.36328125 64.203125 C-18.36328125 64.863125 -18.36328125 65.523125 -18.36328125 66.203125 C-11.61474726 68.56361831 -4.81696541 68.88349987 2.27734375 69.38671875 C3.60869376 69.4878373 4.93997155 69.58991064 6.2711792 69.69288635 C11.88958593 70.12565255 17.50930152 70.54022078 23.12939453 70.95043945 C26.58116849 71.20306908 30.03201331 71.46631168 33.48253632 71.73546028 C35.41094462 71.88260602 37.34026941 72.01758217 39.26959229 72.15220642 C51.77242298 73.12732462 62.25880135 75.66968695 72.38671875 83.265625 C82.65967958 96.67754609 81.61717909 115.01563064 80.328125 131.0390625 C78.90196774 141.6658272 76.52205872 149.61380424 67.9921875 156.515625 C57.46605584 164.05673425 46.34559124 164.51313764 33.703125 164.50390625 C32.38940414 164.50819138 31.07568329 164.5124765 29.72215271 164.51689148 C26.95624728 164.52430289 24.19046962 164.52409939 21.42456055 164.51879883 C17.91026203 164.51300603 14.39649088 164.52995496 10.8822794 164.5531435 C7.48920763 164.57156215 4.09624623 164.56769287 0.703125 164.56640625 C-0.54303085 164.575616 -1.78918671 164.58482574 -3.07310486 164.59431458 C-16.57532668 164.52353064 -28.49722063 161.46458826 -38.23828125 151.640625 C-47.66624144 140.01132504 -46.53218566 123.27849275 -46.36328125 109.203125 C-43.21746702 109.17423986 -40.07168656 109.15636577 -36.92578125 109.140625 C-36.02794922 109.13224609 -35.13011719 109.12386719 -34.20507812 109.11523438 C-33.35107422 109.11201172 -32.49707031 109.10878906 -31.6171875 109.10546875 C-30.82642822 109.10023193 -30.03566895 109.09499512 -29.22094727 109.08959961 C-27.36328125 109.203125 -27.36328125 109.203125 -26.36328125 110.203125 C-26.24927343 112.21304057 -26.14202752 114.22362479 -26.07324219 116.2355957 C-25.694026 128.90130902 -25.694026 128.90130902 -20.23828125 140.078125 C-13.10291051 145.35209468 -5.28812916 145.65193773 3.3203125 145.6015625 C4.41585953 145.60443268 5.51140656 145.60730286 6.64015198 145.61026001 C8.94540934 145.61229161 11.25068431 145.60682543 13.5559082 145.59423828 C17.06045579 145.57818803 20.56384749 145.59411077 24.06835938 145.61328125 C26.31901293 145.61129836 28.56966578 145.60745373 30.8203125 145.6015625 C31.8560289 145.60763519 32.8917453 145.61370789 33.95884705 145.6199646 C41.76771345 145.54546864 48.81902955 144.43011037 55.63671875 140.453125 C60.96684939 134.45672803 59.97051341 125.86643495 59.94921875 118.328125 C59.96533203 117.19503906 59.98144531 116.06195313 59.99804688 114.89453125 C60.00177321 108.46288554 59.93404856 101.92626539 56.63671875 96.203125 C51.63881046 93.29525109 46.54183045 92.18417225 40.83081055 91.75415039 C39.87849045 91.6805983 38.92617035 91.6070462 37.94499207 91.53126526 C36.91900406 91.45520554 35.89301605 91.37914581 34.8359375 91.30078125 C32.6386703 91.1308798 30.44140473 90.96095722 28.24414062 90.79101562 C24.79981454 90.52880682 21.35538818 90.26797703 17.91088867 90.00805664 C-27.45457223 86.56834804 -27.45457223 86.56834804 -37.36328125 75.203125 C-46.74476676 62.71834912 -45.16292229 42.89305205 -43.36328125 28.203125 C-41.86186349 19.43749486 -37.69923707 12.77182192 -31.67578125 6.328125 C-27.15593537 3.42860122 -22.58520601 2.28858127 -17.36328125 1.203125 C-16.55028564 1.03039062 -15.73729004 0.85765625 -14.8996582 0.6796875 C-9.92980657 0.00994981 -5.00977243 0.02021663 0 0 Z " fill="#030365" transform="translate(768.36328125,180.796875)"/>
<path d="M0 0 C36.96 0 73.92 0 112 0 C112 5.94 112 11.88 112 18 C81.31 18 50.62 18 19 18 C19.33 34.5 19.66 51 20 68 C26.41308594 67.98839844 32.82617188 67.97679687 39.43359375 67.96484375 C43.48502705 67.95973706 47.5364564 67.95492329 51.58789062 67.95117188 C58.02515482 67.94518317 64.46240485 67.93808214 70.8996582 67.92456055 C76.08674843 67.91373255 81.27382349 67.90772335 86.46092415 67.90512276 C88.4445628 67.90326835 90.42820058 67.89964744 92.41183281 67.89426994 C95.18009136 67.88706068 97.94828638 67.88600901 100.71655273 67.88647461 C101.54517319 67.88287933 102.37379364 67.87928406 103.2275238 67.87557983 C108.88594784 67.88594784 108.88594784 67.88594784 110 69 C110 74.61 110 80.22 110 86 C79.97 86 49.94 86 19 86 C19 104.48 19 122.96 19 142 C49.69 142 80.38 142 112 142 C112 147.94 112 153.88 112 160 C75.04 160 38.08 160 0 160 C0 107.2 0 54.4 0 0 Z " fill="#040365" transform="translate(586,183)"/>
<path d="M0 0 C0.88399947 0.00092179 1.76799894 0.00184359 2.67878628 0.00279331 C3.68985943 0.00141865 4.70093258 0.00004398 5.74264431 -0.00137234 C7.42038433 0.00402058 7.42038433 0.00402058 9.13201809 0.00952244 C10.30259258 0.00937641 11.47316708 0.00923038 12.67921352 0.00907993 C15.89807713 0.00965887 19.11689773 0.01468791 22.33575273 0.02165389 C25.6963417 0.02788826 29.05693143 0.02849129 32.41752529 0.0296793 C38.78529112 0.03279237 45.15303986 0.04100543 51.52079815 0.05102879 C58.76856499 0.06219068 66.01633263 0.06770057 73.26410592 0.07272422 C88.17703629 0.08318806 103.08994965 0.10098752 118.0028677 0.12304783 C118.0028677 6.06304783 118.0028677 12.00304783 118.0028677 18.12304783 C101.1728677 18.12304783 84.3428677 18.12304783 67.0028677 18.12304783 C67.0028677 64.98304783 67.0028677 111.84304783 67.0028677 160.12304783 C60.7328677 160.12304783 54.4628677 160.12304783 48.0028677 160.12304783 C48.0028677 113.26304783 48.0028677 66.40304783 48.0028677 18.12304783 C31.5028677 18.12304783 15.0028677 18.12304783 -1.9971323 18.12304783 C-3.81829233 16.3018878 -3.1294831 13.81633019 -3.13385105 11.39648533 C-3.12998386 10.64625095 -3.12611668 9.89601658 -3.1221323 9.12304783 C-3.12599949 8.37281345 -3.12986668 7.62257908 -3.13385105 6.84961033 C-3.12183432 0.19234326 -3.12183432 0.19234326 0 0 Z " fill="#040365" transform="translate(863.9971323013306,182.87695217132568)"/>
<path d="M0 0 C17.49 0 34.98 0 53 0 C53 11.22 53 22.44 53 34 C30.23 34 7.46 34 -16 34 C-15.05809398 29.29046988 -13.54057923 25.7004065 -11.375 21.5 C-10.89740234 20.55253906 -10.89740234 20.55253906 -10.41015625 19.5859375 C-7.06070232 12.99048768 -3.50848231 6.51575286 0 0 Z " fill="#010063" transform="translate(207,332)"/>
<path d="M0 0 C2.43714391 3.65571586 2.23228769 6.28547865 2.13525391 10.50073242 C2.12579239 11.26194901 2.11633087 12.02316559 2.10658264 12.80744934 C2.07290279 15.32370006 2.02478855 17.83945824 1.9765625 20.35546875 C1.95039557 22.09994723 1.92512855 23.84443942 1.90072632 25.58894348 C1.83407335 30.18074899 1.75518099 34.77226621 1.67376709 39.36383057 C1.57862238 44.87281664 1.49862958 50.38204089 1.41610718 55.89122772 C1.28903315 64.26105894 1.14267536 72.63035465 1 81 C-13.19 81 -27.38 81 -42 81 C-41.17250421 76.03502524 -40.74368647 74.0286901 -38.375 69.98046875 C-37.83762207 69.04904053 -37.30024414 68.1176123 -36.74658203 67.15795898 C-35.88202393 65.68758179 -35.88202393 65.68758179 -35 64.1875 C-33.80815396 62.12079521 -32.61806067 60.05307867 -31.4296875 57.984375 C-30.55135254 56.45973633 -30.55135254 56.45973633 -29.65527344 54.90429688 C-27.40376683 50.95386581 -25.24299739 46.96080097 -23.125 42.9375 C-22.76688232 42.25768066 -22.40876465 41.57786133 -22.03979492 40.87744141 C-19.73420956 36.46968895 -17.51241348 32.02370577 -15.3125 27.5625 C-12.89686973 22.68103006 -10.28172335 18.0241399 -7.41796875 13.39453125 C-5.40873066 10.00152038 -3.69198384 6.48401825 -1.98046875 2.93359375 C-1 1 -1 1 0 0 Z " fill="#020164" transform="translate(259,237)"/>
<path d="M0 0 C36.96 0 73.92 0 112 0 C112 5.94 112 11.88 112 18 C111.34 18 110.68 18 110 18 C110.33 12.72 110.66 7.44 111 2 C75.03 2 39.06 2 2 2 C2.02320313 13.16585937 2.04640625 24.33171875 2.0703125 35.8359375 C2.08052608 42.89062592 2.09023617 49.94530901 2.09765625 57 C2.10953987 68.20867739 2.12353662 79.4173248 2.15087891 90.62597656 C2.17077955 98.78788958 2.18370852 106.94977835 2.18817699 115.11171496 C2.19079003 119.43556444 2.19695423 123.75934454 2.21146011 128.08317184 C2.22499157 132.14932749 2.22923169 136.21538488 2.22621536 140.2815609 C2.22676752 141.77717942 2.23077133 143.27280108 2.23841095 144.76840019 C2.24830232 146.80394007 2.2447911 148.83953215 2.24050903 150.87509155 C2.24235262 152.01627127 2.24419621 153.15745098 2.24609566 154.3332119 C2 157 2 157 0 159 C0 106.53 0 54.06 0 0 Z " fill="#0A0A63" transform="translate(586,183)"/>
<path d="M0 0 C1.18613892 0.00785522 1.18613892 0.00785522 2.39624023 0.01586914 C3.16524658 0.0183667 3.93425293 0.02086426 4.7265625 0.0234375 C5.70939209 0.0325415 6.69222168 0.04164551 7.70483398 0.05102539 C12.37639648 0.08196289 12.37639648 0.08196289 17.14233398 0.11352539 C17.14233398 8.36352539 17.14233398 16.61352539 17.14233398 25.11352539 C10.54233398 25.11352539 3.94233398 25.11352539 -2.85766602 25.11352539 C-2.88449216 21.13431445 -2.90441995 17.15528198 -2.92016602 13.17602539 C-2.92854492 12.0397168 -2.93692383 10.9034082 -2.94555664 9.73266602 C-2.9487793 8.65307617 -2.95200195 7.57348633 -2.95532227 6.46118164 C-2.96055908 5.46094971 -2.9657959 4.46071777 -2.97119141 3.43017578 C-2.81151844 0.17181707 -2.81151844 0.17181707 0 0 Z " fill="#030262" transform="translate(976.857666015625,317.886474609375)"/>
<path d="M0 0 C0.33 0 0.66 0 1 0 C1 16.83 1 33.66 1 51 C1.66 51.33 2.32 51.66 3 52 C1.0625 51.6875 1.0625 51.6875 -1 51 C-1.94193985 48.17418045 -2.10232394 46.59388932 -2.03759766 43.68383789 C-2.02072906 42.81606216 -2.00386047 41.94828644 -1.98648071 41.05421448 C-1.9625827 40.11980026 -1.93868469 39.18538605 -1.9140625 38.22265625 C-1.89282318 37.25976181 -1.87158386 36.29686737 -1.84970093 35.30479431 C-1.80343981 33.26799558 -1.7545116 31.23125594 -1.703125 29.19458008 C-1.62539687 26.07841068 -1.55817512 22.96214077 -1.4921875 19.84570312 C-1.44594298 17.86717266 -1.39908826 15.88865635 -1.3515625 13.91015625 C-1.33171295 12.97776627 -1.3118634 12.04537628 -1.29141235 11.08473206 C-1.25665298 9.77834023 -1.25665298 9.77834023 -1.22119141 8.44555664 C-1.20263092 7.68183243 -1.18407043 6.91810822 -1.16494751 6.13124084 C-0.99908468 3.98817347 -0.58303711 2.06526011 0 0 Z " fill="#020257" transform="translate(450,201)"/>
<path d="M0 0 C0.99 0.495 0.99 0.495 2 1 C1.02616882 3.47026062 1.02616882 3.47026062 -1 6 C-4.00050785 6.45661865 -6.42374274 6.57661284 -9.41870117 6.47583008 C-10.27745346 6.46680664 -11.13620575 6.4577832 -12.02098083 6.44848633 C-14.86256329 6.41268524 -17.70208424 6.3412418 -20.54296875 6.26953125 C-22.51162865 6.23777221 -24.48032554 6.20823422 -26.4490509 6.18083191 C-31.63309967 6.10269235 -36.81609619 5.99433313 -41.99945068 5.87976074 C-47.28774102 5.76818959 -52.57646924 5.6850825 -57.86523438 5.59960938 C-68.24411849 5.42766183 -78.6221136 5.22379927 -89 5 C-89 4.67 -89 4.34 -89 4 C-87.37174789 3.99120064 -87.37174789 3.99120064 -85.71060181 3.98222351 C-75.49807329 3.9250966 -65.28575976 3.85238809 -55.07345009 3.76428509 C-49.82274524 3.7194911 -44.57211962 3.68025513 -39.32128906 3.65356445 C-34.25722557 3.62762125 -29.19346548 3.58728332 -24.12958908 3.53681374 C-22.19426614 3.52008399 -20.25889065 3.50860791 -18.3235054 3.50238609 C-15.61980365 3.49281108 -12.91688888 3.46483242 -10.21337891 3.43237305 C-9.00389336 3.43452568 -9.00389336 3.43452568 -7.76997375 3.4367218 C-5.31799144 3.43009147 -5.31799144 3.43009147 -2 3 C-1.34 2.01 -0.68 1.02 0 0 Z " fill="#040457" transform="translate(179,360)"/>
<path d="M0 0 C0.71484375 1.609375 0.71484375 1.609375 1 4 C-0.43359375 7.015625 -0.43359375 7.015625 -2.4375 10.25 C-3.09621094 11.32765625 -3.75492188 12.4053125 -4.43359375 13.515625 C-4.95050781 14.33546875 -5.46742188 15.1553125 -6 16 C-6.66 15.67 -7.32 15.34 -8 15 C-2.81321185 4.44191344 -2.81321185 4.44191344 0 0 Z " fill="#060552" transform="translate(236,255)"/>
<path d="M0 0 C0.66 0.33 1.32 0.66 2 1 C1.01 2.98 0.02 4.96 -1 7 C0.65 7 2.3 7 4 7 C4.33 7.66 4.66 8.32 5 9 C2.36 9 -0.28 9 -3 9 C-2.44271087 5.65626525 -1.64826111 2.96687001 0 0 Z " fill="#070757" transform="translate(194,357)"/>
<path d="M0 0 C0.391875 0.556875 0.78375 1.11375 1.1875 1.6875 C3.03593103 4.15062867 3.03593103 4.15062867 5.6875 6.625 C8 9 8 9 8 11 C8.66 11 9.32 11 10 11 C9.67 11.66 9.34 12.32 9 13 C0.18451025 5.88610478 0.18451025 5.88610478 -1 1 C-0.67 0.67 -0.34 0.34 0 0 Z " fill="#201F6E" transform="translate(730,250)"/>
<path d="M0 0 C0.66 0 1.32 0 2 0 C0.55049545 3.7910119 -1.15172566 7.3874638 -3 11 C-3.66 11 -4.32 11 -5 11 C-3.78065514 6.96678237 -2.44045073 3.45730521 0 0 Z " fill="#101068" transform="translate(308,123)"/>
<path d="M0 0 C2.80722691 4.21084037 1.94537893 6.11554218 1 11 C0.01 11.495 0.01 11.495 -1 12 C-1 3.625 -1 3.625 0 0 Z " fill="#141362" transform="translate(259,237)"/>
<path d="M0 0 C0.6875 1.625 0.6875 1.625 1 4 C-0.4375 7.25 -0.4375 7.25 -2 10 C-2.66 10 -3.32 10 -4 10 C-2.8905928 6.51329166 -1.73662334 3.22515763 0 0 Z " fill="#010155" transform="translate(131,281)"/>
<path d="M0 0 C0.6875 1.6875 0.6875 1.6875 1 4 C-0.3125 6.75 -0.3125 6.75 -2 9 C-2.66 9 -3.32 9 -4 9 C-2.94124926 5.59687262 -1.99097846 2.98646769 0 0 Z " fill="#141368" transform="translate(207,308)"/>
<path d="M0 0 C0 0.66 0 1.32 0 2 C-2.97 2.66 -5.94 3.32 -9 4 C-9 3.34 -9 2.68 -9 2 C-3.375 0 -3.375 0 0 0 Z " fill="#06065D" transform="translate(525,248)"/>
<path d="M0 0 C3.57104439 1.87949705 5.54744301 3.17053157 7 7 C5 7 5 7 3.5 5.5625 C3.005 5.046875 2.51 4.53125 2 4 C1.34 3.67 0.68 3.34 0 3 C0 2.01 0 1.02 0 0 Z " fill="#0C0B63" transform="translate(833,188)"/>
</svg>
